<svg version="1.1" id="Layer_1" xmlns="http://www.w3.org/2000/svg" xmlns:xlink="http://www.w3.org/1999/xlink" x="0px" y="0px"
	 width="100%" viewBox="0 0 500 500" enable-background="new 0 0 500 500" xml:space="preserve">
<path fill="#FFFFFF" opacity="1.000000" stroke="none" 
	d="
M231.000000,501.000000 
	C154.000015,501.000000 77.500038,501.000000 1.000041,501.000000 
	C1.000027,334.333405 1.000027,167.666779 1.000014,1.000131 
	C167.666565,1.000087 334.333130,1.000087 500.999756,1.000044 
	C500.999847,167.666519 500.999847,334.333038 500.999939,500.999786 
	C411.166656,501.000000 321.333344,501.000000 231.000000,501.000000 
M424.979675,344.015869 
	C424.931488,324.688080 424.883301,305.360291 424.973633,285.100220 
	C424.959534,275.679871 424.945465,266.259521 425.420044,256.350677 
	C432.909790,254.111099 436.738861,248.643036 436.929413,241.268692 
	C437.335510,225.554489 437.250488,209.822815 437.097839,194.100922 
	C437.017334,185.810120 432.931427,180.029419 424.986389,176.321594 
	C424.986389,170.031662 424.986389,163.741745 424.986389,157.233871 
	C308.835785,157.233871 193.128967,157.233871 76.998680,157.233871 
	C76.998680,163.950455 76.998680,170.410950 76.075790,177.039093 
	C71.151108,177.039093 66.226425,177.039093 61.385147,177.039093 
	C61.385147,183.358078 61.385147,189.069550 61.385147,195.082153 
	C66.004288,195.082153 70.269714,195.082153 74.925026,195.082153 
	C74.925026,197.003433 74.925026,198.631180 74.925026,200.258942 
	C74.925026,217.714096 74.873734,235.169678 75.015076,252.623688 
	C75.027390,254.143585 76.307762,255.653214 77.000290,258.083893 
	C77.055260,287.060791 77.110222,316.037720 77.455399,345.825745 
	C78.116585,345.883301 78.777779,345.991180 79.438972,345.991211 
	C193.305450,345.999146 307.171906,346.002838 421.038361,345.955505 
	C422.306427,345.954987 423.574249,345.286011 424.979675,344.015869 
z"/>
<path fill="#F1BC00" opacity="1.000000" stroke="none" 
	d="
M424.931396,256.839172 
	C424.945465,266.259521 424.959534,275.679871 424.636414,285.879822 
	C424.197815,288.470825 424.012848,290.282013 424.008148,292.093689 
	C423.962280,309.677979 423.946625,327.262329 423.461731,344.902802 
	C420.835693,344.973724 418.670288,345.001343 416.504883,345.001434 
	C303.391663,345.007294 190.278427,345.010834 77.165192,345.014618 
	C77.110222,316.037720 77.055260,287.060791 77.462585,257.554749 
	C83.849709,257.025574 89.774536,257.025574 96.160385,257.025574 
	C96.160385,235.943878 96.160385,215.557755 96.160385,194.747009 
	C100.892624,194.747009 105.149162,194.747009 109.559280,194.747009 
	C109.559280,188.733948 109.559280,183.157425 109.559280,176.871429 
	C98.538612,176.871429 87.768646,176.871429 76.998680,176.871429 
	C76.998680,170.410950 76.998680,163.950455 76.998680,157.233871 
	C193.128967,157.233871 308.835785,157.233871 424.986389,157.233871 
	C424.986389,163.741745 424.986389,170.031662 424.517700,176.779633 
	C416.611359,177.152359 409.122803,176.486664 401.749359,177.133316 
	C393.148224,177.887604 387.531555,183.223892 387.254395,191.609695 
	C386.695618,208.517990 386.713074,225.469101 387.239319,242.379333 
	C387.496796,250.654144 392.842896,256.050690 401.151855,256.832275 
	C409.009033,257.571350 416.999542,256.893707 424.931396,256.839172 
M363.500000,341.843689 
	C382.581482,341.843689 401.662994,341.843689 420.623871,341.843689 
	C420.623871,322.787628 420.623871,304.534607 420.623871,286.363770 
	C307.239166,286.363770 194.184525,286.363770 81.277969,286.363770 
	C81.277969,304.981293 81.277969,323.232117 81.277969,341.843628 
	C175.241409,341.843628 268.870697,341.843628 363.500000,341.843689 
M332.280548,197.500244 
	C332.280548,217.242767 332.280548,236.985291 332.280548,256.757812 
	C339.559265,256.757812 346.156006,256.757812 353.216339,256.757812 
	C353.216339,248.107819 353.216339,239.692001 353.216339,231.276169 
	C353.739014,230.999771 354.261658,230.723373 354.784332,230.446976 
	C355.786743,231.755630 357.312256,232.925156 357.703522,234.396332 
	C359.691010,241.870148 361.384491,249.422119 363.131989,256.741760 
	C370.491882,256.741760 377.242676,256.741760 384.533112,256.741760 
	C382.287964,249.051361 380.243744,241.717941 377.987854,234.450211 
	C376.701508,230.305984 375.291016,226.488724 379.389526,222.821564 
	C380.812714,221.548187 381.615570,218.928375 381.672668,216.894638 
	C381.918915,208.125458 382.371033,199.293701 381.602539,190.585815 
	C380.976349,183.490097 376.362762,178.277756 368.950531,177.935440 
	C356.910889,177.379395 344.826782,177.785553 332.280701,177.785553 
	C332.280701,183.924469 332.280701,190.212494 332.280548,197.500244 
M238.355164,256.403290 
	C245.395889,256.403290 252.436615,256.403290 259.713806,256.403290 
	C257.467529,248.754395 255.376053,241.059891 252.913361,233.486099 
	C251.664062,229.644012 251.080750,226.385300 254.440063,223.177383 
	C255.756973,221.919861 256.677338,219.613022 256.718628,217.760437 
	C256.928864,208.327255 257.423584,198.828003 256.559204,189.468216 
	C255.962433,183.006683 251.233337,178.290253 244.512589,177.997147 
	C232.442245,177.470718 220.332474,177.848572 208.067017,177.848572 
	C208.067017,203.937744 208.067017,230.303711 208.067017,256.740967 
	C214.992615,256.740967 221.577942,256.740967 228.642410,256.740967 
	C228.642410,249.191895 228.573883,241.894547 228.708969,234.600952 
	C228.731842,233.365768 229.630646,232.146820 230.124756,230.920364 
	C231.073776,232.022522 232.548111,232.984909 232.884689,234.250015 
	C234.765457,241.319122 236.371140,248.461441 238.355164,256.403290 
M153.073944,224.500000 
	C153.073944,235.246704 153.073944,245.993393 153.073944,256.002594 
	C165.196838,256.002594 176.674011,256.582001 188.059021,255.807297 
	C196.210617,255.252625 201.518799,249.734848 201.775345,241.756287 
	C202.303436,225.331650 202.277908,208.868210 201.790558,192.441193 
	C201.563171,184.776917 196.719849,179.330551 189.109161,178.485931 
	C177.314331,177.177002 165.380341,177.122147 153.073959,176.514282 
	C153.073959,192.945709 153.073959,208.222855 153.073944,224.500000 
M279.933868,207.500000 
	C279.933868,223.908768 279.933868,240.317535 279.933868,256.585754 
	C287.307983,256.585754 294.017029,256.585754 301.100891,256.585754 
	C301.100891,248.583527 301.100891,240.995651 301.100891,232.952499 
	C305.120270,232.952499 308.763031,233.143555 312.379272,232.915039 
	C321.559174,232.334961 327.445007,227.868164 328.372223,218.806458 
	C329.311493,209.627213 329.252472,200.196671 328.293030,191.015991 
	C327.408020,182.548050 322.986755,178.280609 314.558136,177.710861 
	C303.192688,176.942566 291.736267,177.520126 279.933868,177.520126 
	C279.933868,187.251297 279.933868,196.875641 279.933868,207.500000 
M111.933861,224.500000 
	C111.933861,235.240005 111.933861,245.979996 111.933861,256.616943 
	C125.112411,256.616943 137.639984,256.616943 149.997192,256.616943 
	C149.997192,250.658768 149.997192,245.092850 149.997192,239.097748 
	C144.208191,239.097748 138.788422,239.097748 132.881989,239.097748 
	C132.881989,218.300079 132.881989,197.935760 132.881989,177.365494 
	C125.674461,177.365494 118.972359,177.365494 111.933853,177.365494 
	C111.933853,192.948914 111.933853,208.224457 111.933861,224.500000 
z"/>
<path fill="#121210" opacity="1.000000" stroke="none" 
	d="
M425.175720,256.594910 
	C416.999542,256.893707 409.009033,257.571350 401.151855,256.832275 
	C392.842896,256.050690 387.496796,250.654144 387.239319,242.379333 
	C386.713074,225.469101 386.695618,208.517990 387.254395,191.609695 
	C387.531555,183.223892 393.148224,177.887604 401.749359,177.133316 
	C409.122803,176.486664 416.611359,177.152359 424.482452,177.265381 
	C432.931427,180.029419 437.017334,185.810120 437.097839,194.100922 
	C437.250488,209.822815 437.335510,225.554489 436.929413,241.268692 
	C436.738861,248.643036 432.909790,254.111099 425.175720,256.594910 
M410.072693,193.638992 
	C409.137573,195.233444 407.420227,196.813965 407.391571,198.424576 
	C407.169861,210.877579 407.213531,223.336929 407.323639,235.793015 
	C407.349426,238.711853 408.601227,240.909225 412.133026,240.825211 
	C415.640350,240.741760 416.780304,238.499969 416.802399,235.590683 
	C416.895752,223.298264 416.895721,211.004547 416.829010,198.711853 
	C416.808228,194.880661 414.916809,192.817581 410.072693,193.638992 
z"/>
<path fill="#121210" opacity="1.000000" stroke="none" 
	d="
M76.537231,176.955261 
	C87.768646,176.871429 98.538612,176.871429 109.559280,176.871429 
	C109.559280,183.157425 109.559280,188.733948 109.559280,194.747009 
	C105.149162,194.747009 100.892624,194.747009 96.160385,194.747009 
	C96.160385,215.557755 96.160385,235.943878 96.160385,257.025574 
	C89.774536,257.025574 83.849709,257.025574 77.462006,257.096588 
	C76.307762,255.653214 75.027390,254.143585 75.015076,252.623688 
	C74.873734,235.169678 74.925026,217.714096 74.925026,200.258942 
	C74.925026,198.631180 74.925026,197.003433 74.925026,195.082153 
	C70.269714,195.082153 66.004288,195.082153 61.385147,195.082153 
	C61.385147,189.069550 61.385147,183.358078 61.385147,177.039093 
	C66.226425,177.039093 71.151108,177.039093 76.537231,176.955261 
z"/>
<path fill="#8F7107" opacity="1.000000" stroke="none" 
	d="
M77.310295,345.420166 
	C190.278427,345.010834 303.391663,345.007294 416.504883,345.001434 
	C418.670288,345.001343 420.835693,344.973724 423.690552,344.938507 
	C424.380005,344.918091 424.842163,344.929047 424.842163,344.929047 
	C423.574249,345.286011 422.306427,345.954987 421.038361,345.955505 
	C307.171906,346.002838 193.305450,345.999146 79.438972,345.991211 
	C78.777779,345.991180 78.116585,345.883301 77.310295,345.420166 
z"/>
<path fill="#CEA102" opacity="1.000000" stroke="none" 
	d="
M424.910919,344.472473 
	C424.842163,344.929047 424.380005,344.918091 424.151184,344.882385 
	C423.946625,327.262329 423.962280,309.677979 424.008148,292.093689 
	C424.012848,290.282013 424.197815,288.470825 424.567139,286.345947 
	C424.883301,305.360291 424.931488,324.688080 424.910919,344.472473 
z"/>
<path fill="#131210" opacity="1.000000" stroke="none" 
	d="
M363.000000,341.843658 
	C268.870697,341.843628 175.241409,341.843628 81.277969,341.843628 
	C81.277969,323.232117 81.277969,304.981293 81.277969,286.363770 
	C194.184525,286.363770 307.239166,286.363770 420.623871,286.363770 
	C420.623871,304.534607 420.623871,322.787628 420.623871,341.843689 
	C401.662994,341.843689 382.581482,341.843689 363.000000,341.843658 
M304.666138,312.887665 
	C303.500946,311.330292 302.335754,309.772919 300.662415,307.536346 
	C300.662415,313.490051 300.662415,318.179810 300.662415,322.869598 
	C301.124725,322.881744 301.587067,322.893890 302.049377,322.906036 
	C302.049377,320.144012 302.049377,317.381989 302.049377,314.619965 
	C302.379852,314.575867 302.710327,314.531769 303.040771,314.487640 
	C304.558044,316.720398 306.075287,318.953125 307.889038,321.622162 
	C309.674805,319.099945 311.119507,317.059448 313.139587,314.206360 
	C313.496490,317.851471 313.748779,320.427948 314.001038,323.004425 
	C314.435547,322.965332 314.870026,322.926239 315.304535,322.887146 
	C315.304535,318.102478 315.304535,313.317810 315.304535,308.533142 
	C314.967834,308.426575 314.631134,308.319977 314.294434,308.213379 
	C312.281403,311.309753 310.268372,314.406128 307.964264,317.950226 
	C306.785950,316.180634 305.904175,314.856415 304.666138,312.887665 
M282.392426,317.172913 
	C283.279419,318.519592 284.166382,319.866272 285.347534,321.659576 
	C287.248627,318.926819 288.839111,316.640594 290.718475,313.939087 
	C291.032593,317.452423 291.276154,320.176697 291.519745,322.900940 
	C291.921082,322.858521 292.322449,322.816071 292.723785,322.773621 
	C292.723785,318.059326 292.723785,313.345062 292.723785,308.630768 
	C292.395020,308.504883 292.066254,308.379028 291.737457,308.253143 
	C289.689362,311.467010 287.641266,314.680847 285.460419,318.102997 
	C283.178802,314.606873 281.073700,311.381226 278.257385,307.065857 
	C278.257385,313.330017 278.257385,318.096588 278.257385,322.863159 
	C278.710480,322.884491 279.163574,322.905823 279.616669,322.927124 
	C279.767975,320.180389 279.919312,317.433624 280.124664,313.705841 
	C281.148346,315.237549 281.585754,315.892059 282.392426,317.172913 
M340.440552,309.143097 
	C340.440552,313.757812 340.440552,318.372498 340.440552,322.987213 
	C340.889069,323.035522 341.337555,323.083862 341.786072,323.132172 
	C342.364258,321.764496 342.942444,320.396851 343.949860,318.013885 
	C346.599121,319.806580 349.009369,321.437531 351.419617,323.068481 
	C351.598358,322.889008 351.777130,322.709534 351.955902,322.530060 
	C351.208374,321.186127 350.460815,319.842194 349.713287,318.498230 
	C351.114746,316.110413 352.481812,313.085510 351.511292,311.435638 
	C350.475525,309.674774 347.293060,309.020691 344.925751,308.265930 
	C343.770081,307.897491 342.337372,308.397949 340.440552,309.143097 
M99.077316,311.450226 
	C98.358543,310.310272 97.639771,309.170288 96.213173,306.907715 
	C93.486763,312.914795 91.311813,317.706818 89.136871,322.498840 
	C94.296829,317.498322 98.985359,318.310303 104.054672,322.419250 
	C102.490715,318.988983 100.926758,315.558716 99.077316,311.450226 
M128.949310,319.589417 
	C132.216858,320.328949 135.484390,321.068512 139.087708,321.884064 
	C137.044586,317.567657 134.773636,312.769928 132.502686,307.972168 
	C131.965668,308.016754 131.428650,308.061340 130.891632,308.105957 
	C128.763672,312.867279 126.635704,317.628601 124.507736,322.389954 
	C124.889809,322.613647 125.271889,322.837341 125.653969,323.061066 
	C126.499451,322.032928 127.344933,321.004761 128.949310,319.589417 
M392.191925,321.006073 
	C390.235077,321.006073 388.278229,321.006073 386.321381,321.006073 
	C386.010345,320.568420 385.699310,320.130768 385.388275,319.693085 
	C386.306396,318.720947 387.057465,317.359528 388.185120,316.875702 
	C389.577545,316.278259 391.282959,316.410339 392.853149,316.227173 
	C392.819366,315.798096 392.785553,315.369019 392.751740,314.939941 
	C391.503967,314.803925 390.172913,314.892426 389.031769,314.469025 
	C387.883881,314.043182 386.924927,313.108093 385.883209,312.396149 
	C386.979828,311.737579 388.003937,310.825989 389.191742,310.485443 
	C390.627197,310.073853 392.201385,310.146027 393.715515,310.008850 
	C393.695190,309.582275 393.674866,309.155731 393.654510,308.729156 
	C390.268433,308.729156 386.882324,308.729156 383.520721,308.729156 
	C383.520721,313.641785 383.520721,318.209961 383.520721,323.076630 
	C386.677673,323.076630 389.486115,323.136017 392.283875,322.990509 
	C392.584381,322.974854 392.822845,321.767029 392.191925,321.006073 
M218.171371,320.219574 
	C219.371872,323.525360 223.730026,324.252655 229.887619,321.507263 
	C226.277740,321.135559 223.647324,320.864685 221.078949,320.600220 
	C219.764526,313.803375 226.805328,318.861053 227.900818,315.097137 
	C226.768753,314.901581 225.654953,314.875427 224.675644,314.499207 
	C223.356171,313.992310 222.140305,313.215637 220.879990,312.554749 
	C222.088638,311.842865 223.226440,310.926392 224.525803,310.476440 
	C225.835327,310.023041 227.305313,310.033081 228.705002,309.840088 
	C228.638229,309.420227 228.571442,309.000366 228.504669,308.580505 
	C225.208862,308.580505 221.913055,308.580505 218.167404,308.580505 
	C218.167404,312.380737 218.167404,315.831818 218.171371,320.219574 
M324.642944,313.137512 
	C323.271484,316.243073 321.900055,319.348633 320.534668,322.440521 
	C323.491974,321.250061 325.731293,319.599030 327.908813,319.676910 
	C330.217072,319.759430 332.466583,321.484741 335.540863,322.846619 
	C333.041504,317.567322 330.770142,312.769653 327.896271,306.699310 
	C326.390869,309.617981 325.659943,311.035126 324.642944,313.137512 
M146.595230,308.227692 
	C143.506912,309.804932 142.785202,319.183014 145.471878,322.824951 
	C147.536819,317.514343 148.924103,317.321625 152.935333,321.661652 
	C153.527893,322.302765 154.491409,322.600983 155.283295,323.057831 
	C155.427597,322.840607 155.571884,322.623352 155.716171,322.406097 
	C154.932785,321.150238 154.149384,319.894379 153.375885,318.654388 
	C157.338394,313.343048 156.651627,309.777313 151.402283,308.541107 
	C150.131912,308.241943 148.773254,308.317688 146.595230,308.227692 
M404.254700,308.248535 
	C402.838409,308.717804 400.238831,309.094879 400.193970,309.670929 
	C399.851013,314.074097 400.005798,318.516052 400.005798,322.945923 
	C400.482819,322.950073 400.959839,322.954224 401.436859,322.958374 
	C401.817413,321.638153 402.197998,320.317932 402.944855,317.727051 
	C405.903412,319.639404 408.454407,321.288269 411.916077,323.525787 
	C410.602325,321.198547 409.878632,319.916565 409.158417,318.632446 
	C413.612762,312.466522 412.499451,309.619507 404.254700,308.248535 
M268.067841,319.364014 
	C266.295990,319.824799 264.253601,321.024261 262.840149,320.506531 
	C261.759369,320.110657 261.175659,317.591339 260.905487,315.929626 
	C260.506195,313.473480 260.581238,310.940216 260.382141,307.018799 
	C257.566986,312.723297 257.765717,320.419220 260.659271,321.659393 
	C262.999481,322.662384 266.529083,322.628784 268.828583,321.553192 
	C271.777618,320.173798 271.904633,312.704224 269.291565,307.690247 
	C268.967133,311.878113 268.706787,315.238739 268.067841,319.364014 
M371.779846,314.151703 
	C369.691010,316.785767 367.602173,319.419861 365.186157,322.466492 
	C370.155029,322.466492 373.995483,322.466492 377.835938,322.466492 
	C377.836853,322.054352 377.837799,321.642242 377.838715,321.230103 
	C375.186127,321.230103 372.533508,321.230103 369.014038,321.230103 
	C372.449768,316.700378 375.262115,312.992584 378.466003,308.768585 
	C373.772430,308.768585 370.036163,308.768585 366.299896,308.768585 
	C366.271973,309.120392 366.244080,309.472198 366.216187,309.824005 
	C368.777802,310.084045 371.339417,310.344086 374.382263,310.652985 
	C373.392029,311.985138 372.807129,312.772034 371.779846,314.151703 
M242.507553,313.899414 
	C245.332840,315.576721 248.158112,317.254028 250.983398,318.931305 
	C250.939346,319.445587 250.895294,319.959869 250.851227,320.474121 
	C247.969086,320.617706 245.086960,320.761292 242.204819,320.904877 
	C244.104126,322.320740 246.304749,323.317047 248.232422,322.935242 
	C249.979187,322.589294 251.428421,320.740997 253.008835,319.555054 
	C251.759003,318.057343 250.710159,316.296722 249.198746,315.141174 
	C247.877838,314.131317 246.036407,313.802277 244.424942,313.172455 
	C244.421600,312.559204 244.418259,311.945953 244.414917,311.332733 
	C246.913452,310.916138 249.412003,310.499542 251.688278,310.120026 
	C247.862976,306.443756 243.579041,307.711090 242.507553,313.899414 
M187.005402,317.166748 
	C187.146149,310.894562 188.795151,309.844879 196.838470,310.907379 
	C194.228134,307.541962 190.236633,307.252930 186.908829,310.188354 
	C183.831177,312.903137 183.640823,317.927795 186.503067,320.898987 
	C189.507263,324.017517 194.128098,323.860474 197.472778,320.051544 
	C193.467041,320.816711 189.509750,322.544006 187.005402,317.166748 
M203.746597,308.683380 
	C203.509140,313.387848 203.271683,318.092316 203.045837,322.566406 
	C207.049927,322.566406 210.159210,322.566406 213.268509,322.566406 
	C213.287964,322.199219 213.307434,321.832031 213.326889,321.464844 
	C210.884354,321.155243 208.441818,320.845612 206.495544,320.598907 
	C205.775940,316.222992 205.129745,312.293488 203.746597,308.683380 
M163.787506,308.239594 
	C162.542130,308.407898 161.296768,308.576233 160.051392,308.744537 
	C160.092361,309.080719 160.133316,309.416901 160.174271,309.753082 
	C161.691635,310.139435 163.209000,310.525787 165.407715,311.085602 
	C165.407715,315.114594 165.407715,318.995758 165.407715,322.876953 
	C165.871567,322.862640 166.335434,322.848328 166.799286,322.834015 
	C166.799286,318.813538 166.799286,314.793030 166.799286,310.823883 
	C168.857162,310.332916 170.310532,309.986145 171.763901,309.639404 
	C171.755844,309.275848 171.747787,308.912292 171.739731,308.548737 
	C169.379974,308.445679 167.020218,308.342590 163.787506,308.239594 
M111.241486,316.475281 
	C111.241486,313.836182 111.241486,311.197083 111.241486,308.557983 
	C110.698753,308.581390 110.156013,308.604797 109.613281,308.628204 
	C109.613281,313.347290 109.613281,318.066376 109.613281,322.785461 
	C110.053177,322.816528 110.493073,322.847565 110.932961,322.878601 
	C111.035851,321.056763 111.138733,319.234924 111.241486,316.475281 
M359.578857,308.600739 
	C356.326935,313.269928 358.484283,318.041504 358.450348,322.771606 
	C358.992249,322.787750 359.534180,322.803925 360.076080,322.820099 
	C360.076080,318.309631 360.076080,313.799194 359.578857,308.600739 
M178.282181,322.755249 
	C178.526062,318.050537 178.769943,313.345795 179.013824,308.641083 
	C178.218353,308.642670 177.422882,308.644287 176.627411,308.645905 
	C176.874832,313.364319 177.122238,318.082703 178.282181,322.755249 
z"/>
<path fill="#131310" opacity="1.000000" stroke="none" 
	d="
M332.280640,197.000381 
	C332.280701,190.212494 332.280701,183.924469 332.280701,177.785553 
	C344.826782,177.785553 356.910889,177.379395 368.950531,177.935440 
	C376.362762,178.277756 380.976349,183.490097 381.602539,190.585815 
	C382.371033,199.293701 381.918915,208.125458 381.672668,216.894638 
	C381.615570,218.928375 380.812714,221.548187 379.389526,222.821564 
	C375.291016,226.488724 376.701508,230.305984 377.987854,234.450211 
	C380.243744,241.717941 382.287964,249.051361 384.533112,256.741760 
	C377.242676,256.741760 370.491882,256.741760 363.131989,256.741760 
	C361.384491,249.422119 359.691010,241.870148 357.703522,234.396332 
	C357.312256,232.925156 355.786743,231.755630 354.784332,230.446976 
	C354.261658,230.723373 353.739014,230.999771 353.216339,231.276169 
	C353.216339,239.692001 353.216339,248.107819 353.216339,256.757812 
	C346.156006,256.757812 339.559265,256.757812 332.280548,256.757812 
	C332.280548,236.985291 332.280548,217.242767 332.280640,197.000381 
M360.965149,195.708344 
	C358.625275,195.006638 356.285400,194.304932 353.428894,193.448303 
	C353.428894,200.925446 353.428894,207.285446 353.428894,213.608353 
	C360.482513,214.863525 361.688416,214.028168 361.808929,207.341248 
	C361.873932,203.734375 361.466034,200.118988 360.965149,195.708344 
z"/>
<path fill="#131210" opacity="1.000000" stroke="none" 
	d="
M238.212982,255.991013 
	C236.371140,248.461441 234.765457,241.319122 232.884689,234.250015 
	C232.548111,232.984909 231.073776,232.022522 230.124756,230.920364 
	C229.630646,232.146820 228.731842,233.365768 228.708969,234.600952 
	C228.573883,241.894547 228.642410,249.191895 228.642410,256.740967 
	C221.577942,256.740967 214.992615,256.740967 208.067017,256.740967 
	C208.067017,230.303711 208.067017,203.937744 208.067017,177.848572 
	C220.332474,177.848572 232.442245,177.470718 244.512589,177.997147 
	C251.233337,178.290253 255.962433,183.006683 256.559204,189.468216 
	C257.423584,198.828003 256.928864,208.327255 256.718628,217.760437 
	C256.677338,219.613022 255.756973,221.919861 254.440063,223.177383 
	C251.080750,226.385300 251.664062,229.644012 252.913361,233.486099 
	C255.376053,241.059891 257.467529,248.754395 259.713806,256.403290 
	C252.436615,256.403290 245.395889,256.403290 238.212982,255.991013 
M237.004929,206.335403 
	C237.004028,204.505569 237.032059,202.675171 236.997009,200.845993 
	C236.873947,194.423965 235.774780,193.565170 228.955536,194.684982 
	C228.955536,201.037628 228.955536,207.417633 228.955536,213.758636 
	C236.158676,214.536575 236.596466,214.165878 237.004929,206.335403 
z"/>
<path fill="#121210" opacity="1.000000" stroke="none" 
	d="
M153.073944,224.000000 
	C153.073959,208.222855 153.073959,192.945709 153.073959,176.514282 
	C165.380341,177.122147 177.314331,177.177002 189.109161,178.485931 
	C196.719849,179.330551 201.563171,184.776917 201.790558,192.441193 
	C202.277908,208.868210 202.303436,225.331650 201.775345,241.756287 
	C201.518799,249.734848 196.210617,255.252625 188.059021,255.807297 
	C176.674011,256.582001 165.196838,256.002594 153.073944,256.002594 
	C153.073944,245.993393 153.073944,235.246704 153.073944,224.000000 
M173.966080,235.272964 
	C174.042664,236.734314 174.119247,238.195663 174.194046,239.623184 
	C180.621307,239.914520 181.858841,239.026642 181.931213,233.270966 
	C182.069382,222.284500 182.084427,211.292831 181.900467,200.307495 
	C181.807938,194.781891 180.008026,193.697601 173.965973,194.976456 
	C173.965973,208.047485 173.965973,221.183594 173.966080,235.272964 
z"/>
<path fill="#121210" opacity="1.000000" stroke="none" 
	d="
M279.933868,207.000000 
	C279.933868,196.875641 279.933868,187.251297 279.933868,177.520126 
	C291.736267,177.520126 303.192688,176.942566 314.558136,177.710861 
	C322.986755,178.280609 327.408020,182.548050 328.293030,191.015991 
	C329.252472,200.196671 329.311493,209.627213 328.372223,218.806458 
	C327.445007,227.868164 321.559174,232.334961 312.379272,232.915039 
	C308.763031,233.143555 305.120270,232.952499 301.100891,232.952499 
	C301.100891,240.995651 301.100891,248.583527 301.100891,256.585754 
	C294.017029,256.585754 287.307983,256.585754 279.933868,256.585754 
	C279.933868,240.317535 279.933868,223.908768 279.933868,207.000000 
M305.025604,215.957230 
	C306.116821,214.537659 307.956238,213.214005 308.152954,211.679779 
	C308.655914,207.756165 308.682281,203.722534 308.430176,199.762787 
	C308.074127,194.170532 306.866058,193.489700 300.862579,194.883423 
	C300.862579,200.945389 300.980255,207.080841 300.808502,213.208191 
	C300.732819,215.909393 302.071228,216.237122 305.025604,215.957230 
z"/>
<path fill="#121210" opacity="1.000000" stroke="none" 
	d="
M111.933853,224.000000 
	C111.933853,208.224457 111.933853,192.948914 111.933853,177.365494 
	C118.972359,177.365494 125.674461,177.365494 132.881989,177.365494 
	C132.881989,197.935760 132.881989,218.300079 132.881989,239.097748 
	C138.788422,239.097748 144.208191,239.097748 149.997192,239.097748 
	C149.997192,245.092850 149.997192,250.658768 149.997192,256.616943 
	C137.639984,256.616943 125.112411,256.616943 111.933861,256.616943 
	C111.933861,245.979996 111.933861,235.240005 111.933853,224.000000 
z"/>
<path fill="#EDB900" opacity="1.000000" stroke="none" 
	d="
M410.451935,193.526855 
	C414.916809,192.817581 416.808228,194.880661 416.829010,198.711853 
	C416.895721,211.004547 416.895752,223.298264 416.802399,235.590683 
	C416.780304,238.499969 415.640350,240.741760 412.133026,240.825211 
	C408.601227,240.909225 407.349426,238.711853 407.323639,235.793015 
	C407.213531,223.336929 407.169861,210.877579 407.391571,198.424576 
	C407.420227,196.813965 409.137573,195.233444 410.451935,193.526855 
z"/>
<path fill="#D2A402" opacity="1.000000" stroke="none" 
	d="
M304.844269,313.209900 
	C305.904175,314.856415 306.785950,316.180634 307.964264,317.950226 
	C310.268372,314.406128 312.281403,311.309753 314.294434,308.213379 
	C314.631134,308.319977 314.967834,308.426575 315.304535,308.533142 
	C315.304535,313.317810 315.304535,318.102478 315.304535,322.887146 
	C314.870026,322.926239 314.435547,322.965332 314.001038,323.004425 
	C313.748779,320.427948 313.496490,317.851471 313.139587,314.206360 
	C311.119507,317.059448 309.674805,319.099945 307.889038,321.622162 
	C306.075287,318.953125 304.558044,316.720398 303.040771,314.487640 
	C302.710327,314.531769 302.379852,314.575867 302.049377,314.619965 
	C302.049377,317.381989 302.049377,320.144012 302.049377,322.906036 
	C301.587067,322.893890 301.124725,322.881744 300.662415,322.869598 
	C300.662415,318.179810 300.662415,313.490051 300.662415,307.536346 
	C302.335754,309.772919 303.500946,311.330292 304.844269,313.209900 
z"/>
<path fill="#D5A702" opacity="1.000000" stroke="none" 
	d="
M282.207794,316.859741 
	C281.585754,315.892059 281.148346,315.237549 280.124664,313.705841 
	C279.919312,317.433624 279.767975,320.180389 279.616669,322.927124 
	C279.163574,322.905823 278.710480,322.884491 278.257385,322.863159 
	C278.257385,318.096588 278.257385,313.330017 278.257385,307.065857 
	C281.073700,311.381226 283.178802,314.606873 285.460419,318.102997 
	C287.641266,314.680847 289.689362,311.467010 291.737457,308.253143 
	C292.066254,308.379028 292.395020,308.504883 292.723785,308.630768 
	C292.723785,313.345062 292.723785,318.059326 292.723785,322.773621 
	C292.322449,322.816071 291.921082,322.858521 291.519745,322.900940 
	C291.276154,320.176697 291.032593,317.452423 290.718475,313.939087 
	C288.839111,316.640594 287.248627,318.926819 285.347534,321.659576 
	C284.166382,319.866272 283.279419,318.519592 282.207794,316.859741 
z"/>
<path fill="#C39903" opacity="1.000000" stroke="none" 
	d="
M340.735291,308.824097 
	C342.337372,308.397949 343.770081,307.897491 344.925751,308.265930 
	C347.293060,309.020691 350.475525,309.674774 351.511292,311.435638 
	C352.481812,313.085510 351.114746,316.110413 349.713287,318.498230 
	C350.460815,319.842194 351.208374,321.186127 351.955902,322.530060 
	C351.777130,322.709534 351.598358,322.889008 351.419617,323.068481 
	C349.009369,321.437531 346.599121,319.806580 343.949860,318.013885 
	C342.942444,320.396851 342.364258,321.764496 341.786072,323.132172 
	C341.337555,323.083862 340.889069,323.035522 340.440552,322.987213 
	C340.440552,318.372498 340.440552,313.757812 340.735291,308.824097 
M349.020416,311.393219 
	C347.110779,310.950012 345.201141,310.506775 343.112427,310.022003 
	C343.112427,312.814911 343.112427,314.675262 343.112427,316.714966 
	C346.676422,316.566528 350.546448,317.520569 349.020416,311.393219 
z"/>
<path fill="#D4A602" opacity="1.000000" stroke="none" 
	d="
M99.220062,311.789337 
	C100.926758,315.558716 102.490715,318.988983 104.054672,322.419250 
	C98.985359,318.310303 94.296829,317.498322 89.136871,322.498840 
	C91.311813,317.706818 93.486763,312.914795 96.213173,306.907715 
	C97.639771,309.170288 98.358543,310.310272 99.220062,311.789337 
z"/>
<path fill="#D5A702" opacity="1.000000" stroke="none" 
	d="
M128.569855,319.783020 
	C127.344933,321.004761 126.499451,322.032928 125.653969,323.061066 
	C125.271889,322.837341 124.889809,322.613647 124.507736,322.389954 
	C126.635704,317.628601 128.763672,312.867279 130.891632,308.105957 
	C131.428650,308.061340 131.965668,308.016754 132.502686,307.972168 
	C134.773636,312.769928 137.044586,317.567657 139.087708,321.884064 
	C135.484390,321.068512 132.216858,320.328949 128.569855,319.783020 
z"/>
<path fill="#C09703" opacity="1.000000" stroke="none" 
	d="
M392.641022,321.059143 
	C392.822845,321.767029 392.584381,322.974854 392.283875,322.990509 
	C389.486115,323.136017 386.677673,323.076630 383.520721,323.076630 
	C383.520721,318.209961 383.520721,313.641785 383.520721,308.729156 
	C386.882324,308.729156 390.268433,308.729156 393.654510,308.729156 
	C393.674866,309.155731 393.695190,309.582275 393.715515,310.008850 
	C392.201385,310.146027 390.627197,310.073853 389.191742,310.485443 
	C388.003937,310.825989 386.979828,311.737579 385.883209,312.396149 
	C386.924927,313.108093 387.883881,314.043182 389.031769,314.469025 
	C390.172913,314.892426 391.503967,314.803925 392.751740,314.939941 
	C392.785553,315.369019 392.819366,315.798096 392.853149,316.227173 
	C391.282959,316.410339 389.577545,316.278259 388.185120,316.875702 
	C387.057465,317.359528 386.306396,318.720947 385.388275,319.693085 
	C385.699310,320.130768 386.010345,320.568420 386.321381,321.006073 
	C388.278229,321.006073 390.235077,321.006073 392.641022,321.059143 
z"/>
<path fill="#C09703" opacity="1.000000" stroke="none" 
	d="
M218.169388,319.751221 
	C218.167404,315.831818 218.167404,312.380737 218.167404,308.580505 
	C221.913055,308.580505 225.208862,308.580505 228.504669,308.580505 
	C228.571442,309.000366 228.638229,309.420227 228.705002,309.840088 
	C227.305313,310.033081 225.835327,310.023041 224.525803,310.476440 
	C223.226440,310.926392 222.088638,311.842865 220.879990,312.554749 
	C222.140305,313.215637 223.356171,313.992310 224.675644,314.499207 
	C225.654953,314.875427 226.768753,314.901581 227.900818,315.097137 
	C226.805328,318.861053 219.764526,313.803375 221.078949,320.600220 
	C223.647324,320.864685 226.277740,321.135559 229.887619,321.507263 
	C223.730026,324.252655 219.371872,323.525360 218.169388,319.751221 
z"/>
<path fill="#D5A702" opacity="1.000000" stroke="none" 
	d="
M324.785980,312.794861 
	C325.659943,311.035126 326.390869,309.617981 327.896271,306.699310 
	C330.770142,312.769653 333.041504,317.567322 335.540863,322.846619 
	C332.466583,321.484741 330.217072,319.759430 327.908813,319.676910 
	C325.731293,319.599030 323.491974,321.250061 320.534668,322.440521 
	C321.900055,319.348633 323.271484,316.243073 324.785980,312.794861 
z"/>
<path fill="#CEA102" opacity="1.000000" stroke="none" 
	d="
M147.025208,308.224365 
	C148.773254,308.317688 150.131912,308.241943 151.402283,308.541107 
	C156.651627,309.777313 157.338394,313.343048 153.375885,318.654388 
	C154.149384,319.894379 154.932785,321.150238 155.716171,322.406097 
	C155.571884,322.623352 155.427597,322.840607 155.283295,323.057831 
	C154.491409,322.600983 153.527893,322.302765 152.935333,321.661652 
	C148.924103,317.321625 147.536819,317.514343 145.471878,322.824951 
	C142.785202,319.183014 143.506912,309.804932 147.025208,308.224365 
M146.891785,316.555634 
	C148.037186,316.609161 149.372177,317.058502 150.282974,316.622223 
	C151.608429,315.987366 152.628296,314.714569 153.778473,313.713776 
	C152.591248,312.580444 151.563354,311.131622 150.161331,310.423523 
	C149.210251,309.943146 147.733948,310.502655 146.398453,310.604279 
	C146.398453,312.670288 146.398453,314.303741 146.891785,316.555634 
z"/>
<path fill="#D5A702" opacity="1.000000" stroke="none" 
	d="
M404.677795,308.252502 
	C412.499451,309.619507 413.612762,312.466522 409.156677,318.633514 
	C409.878632,319.916565 410.602325,321.198547 411.916077,323.525787 
	C408.454407,321.288269 405.903412,319.639404 402.944855,317.727051 
	C402.197998,320.317932 401.817413,321.638153 401.436859,322.958374 
	C400.959839,322.954224 400.482819,322.950073 400.005798,322.945923 
	C400.005798,318.516052 399.851013,314.074097 400.193970,309.670929 
	C400.238831,309.094879 402.838409,308.717804 404.677795,308.252502 
M409.400482,313.502228 
	C408.387268,309.280365 405.286987,310.327057 402.293579,310.331879 
	C402.293579,312.647797 402.293579,314.545898 402.293579,317.926666 
	C405.134491,316.470154 407.206970,315.407623 409.400482,313.502228 
z"/>
<path fill="#D4A602" opacity="1.000000" stroke="none" 
	d="
M268.257141,318.981689 
	C268.706787,315.238739 268.967133,311.878113 269.291565,307.690247 
	C271.904633,312.704224 271.777618,320.173798 268.828583,321.553192 
	C266.529083,322.628784 262.999481,322.662384 260.659271,321.659393 
	C257.765717,320.419220 257.566986,312.723297 260.382141,307.018799 
	C260.581238,310.940216 260.506195,313.473480 260.905487,315.929626 
	C261.175659,317.591339 261.759369,320.110657 262.840149,320.506531 
	C264.253601,321.024261 266.295990,319.824799 268.257141,318.981689 
z"/>
<path fill="#D4A602" opacity="1.000000" stroke="none" 
	d="
M372.001038,313.855316 
	C372.807129,312.772034 373.392029,311.985138 374.382263,310.652985 
	C371.339417,310.344086 368.777802,310.084045 366.216187,309.824005 
	C366.244080,309.472198 366.271973,309.120392 366.299896,308.768585 
	C370.036163,308.768585 373.772430,308.768585 378.466003,308.768585 
	C375.262115,312.992584 372.449768,316.700378 369.014038,321.230103 
	C372.533508,321.230103 375.186127,321.230103 377.838715,321.230103 
	C377.837799,321.642242 377.836853,322.054352 377.835938,322.466492 
	C373.995483,322.466492 370.155029,322.466492 365.186157,322.466492 
	C367.602173,319.419861 369.691010,316.785767 372.001038,313.855316 
z"/>
<path fill="#D2A402" opacity="1.000000" stroke="none" 
	d="
M242.359604,313.553223 
	C243.579041,307.711090 247.862976,306.443756 251.688278,310.120026 
	C249.412003,310.499542 246.913452,310.916138 244.414917,311.332733 
	C244.418259,311.945953 244.421600,312.559204 244.424942,313.172455 
	C246.036407,313.802277 247.877838,314.131317 249.198746,315.141174 
	C250.710159,316.296722 251.759003,318.057343 253.008835,319.555054 
	C251.428421,320.740997 249.979187,322.589294 248.232422,322.935242 
	C246.304749,323.317047 244.104126,322.320740 242.204819,320.904877 
	C245.086960,320.761292 247.969086,320.617706 250.851227,320.474121 
	C250.895294,319.959869 250.939346,319.445587 250.983398,318.931305 
	C248.158112,317.254028 245.332840,315.576721 242.359604,313.553223 
z"/>
<path fill="#CEA102" opacity="1.000000" stroke="none" 
	d="
M187.107941,317.562531 
	C189.509750,322.544006 193.467041,320.816711 197.472778,320.051544 
	C194.128098,323.860474 189.507263,324.017517 186.503067,320.898987 
	C183.640823,317.927795 183.831177,312.903137 186.908829,310.188354 
	C190.236633,307.252930 194.228134,307.541962 196.838470,310.907379 
	C188.795151,309.844879 187.146149,310.894562 187.107941,317.562531 
z"/>
<path fill="#C09703" opacity="1.000000" stroke="none" 
	d="
M204.115082,308.523682 
	C205.129745,312.293488 205.775940,316.222992 206.495544,320.598907 
	C208.441818,320.845612 210.884354,321.155243 213.326889,321.464844 
	C213.307434,321.832031 213.287964,322.199219 213.268509,322.566406 
	C210.159210,322.566406 207.049927,322.566406 203.045837,322.566406 
	C203.271683,318.092316 203.509140,313.387848 204.115082,308.523682 
z"/>
<path fill="#D4A602" opacity="1.000000" stroke="none" 
	d="
M164.223984,308.239563 
	C167.020218,308.342590 169.379974,308.445679 171.739731,308.548737 
	C171.747787,308.912292 171.755844,309.275848 171.763901,309.639404 
	C170.310532,309.986145 168.857162,310.332916 166.799286,310.823883 
	C166.799286,314.793030 166.799286,318.813538 166.799286,322.834015 
	C166.335434,322.848328 165.871567,322.862640 165.407715,322.876953 
	C165.407715,318.995758 165.407715,315.114594 165.407715,311.085602 
	C163.209000,310.525787 161.691635,310.139435 160.174271,309.753082 
	C160.133316,309.416901 160.092361,309.080719 160.051392,308.744537 
	C161.296768,308.576233 162.542130,308.407898 164.223984,308.239563 
z"/>
<path fill="#D5A702" opacity="1.000000" stroke="none" 
	d="
M111.241554,316.944183 
	C111.138733,319.234924 111.035851,321.056763 110.932961,322.878601 
	C110.493073,322.847565 110.053177,322.816528 109.613281,322.785461 
	C109.613281,318.066376 109.613281,313.347290 109.613281,308.628204 
	C110.156013,308.604797 110.698753,308.581390 111.241486,308.557983 
	C111.241486,311.197083 111.241486,313.836182 111.241554,316.944183 
z"/>
<path fill="#D5A702" opacity="1.000000" stroke="none" 
	d="
M359.827454,308.944733 
	C360.076080,313.799194 360.076080,318.309631 360.076080,322.820099 
	C359.534180,322.803925 358.992249,322.787750 358.450348,322.771606 
	C358.484283,318.041504 356.326935,313.269928 359.827454,308.944733 
z"/>
<path fill="#D5A702" opacity="1.000000" stroke="none" 
	d="
M177.825928,322.778198 
	C177.122238,318.082703 176.874832,313.364319 176.627411,308.645905 
	C177.422882,308.644287 178.218353,308.642670 179.013824,308.641083 
	C178.769943,313.345795 178.526062,318.050537 177.825928,322.778198 
z"/>
<path fill="#E2B101" opacity="1.000000" stroke="none" 
	d="
M361.118317,196.107880 
	C361.466034,200.118988 361.873932,203.734375 361.808929,207.341248 
	C361.688416,214.028168 360.482513,214.863525 353.428894,213.608353 
	C353.428894,207.285446 353.428894,200.925446 353.428894,193.448303 
	C356.285400,194.304932 358.625275,195.006638 361.118317,196.107880 
z"/>
<path fill="#EDB900" opacity="1.000000" stroke="none" 
	d="
M237.001465,206.798065 
	C236.596466,214.165878 236.158676,214.536575 228.955536,213.758636 
	C228.955536,207.417633 228.955536,201.037628 228.955536,194.684982 
	C235.774780,193.565170 236.873947,194.423965 236.997009,200.845993 
	C237.032059,202.675171 237.004028,204.505569 237.001465,206.798065 
z"/>
<path fill="#EFBA00" opacity="1.000000" stroke="none" 
	d="
M173.966034,234.796326 
	C173.965973,221.183594 173.965973,208.047485 173.965973,194.976456 
	C180.008026,193.697601 181.807938,194.781891 181.900467,200.307495 
	C182.084427,211.292831 182.069382,222.284500 181.931213,233.270966 
	C181.858841,239.026642 180.621307,239.914520 174.194046,239.623184 
	C174.119247,238.195663 174.042664,236.734314 173.966034,234.796326 
z"/>
<path fill="#E8B501" opacity="1.000000" stroke="none" 
	d="
M304.591003,215.982330 
	C302.071228,216.237122 300.732819,215.909393 300.808502,213.208191 
	C300.980255,207.080841 300.862579,200.945389 300.862579,194.883423 
	C306.866058,193.489700 308.074127,194.170532 308.430176,199.762787 
	C308.682281,203.722534 308.655914,207.756165 308.152954,211.679779 
	C307.956238,213.214005 306.116821,214.537659 304.591003,215.982330 
z"/>
<path fill="#201C0F" opacity="1.000000" stroke="none" 
	d="
M349.285034,311.688416 
	C350.546448,317.520569 346.676422,316.566528 343.112427,316.714966 
	C343.112427,314.675262 343.112427,312.814911 343.112427,310.022003 
	C345.201141,310.506775 347.110779,310.950012 349.285034,311.688416 
z"/>
<path fill="#201C0F" opacity="1.000000" stroke="none" 
	d="
M146.645111,316.246399 
	C146.398453,314.303741 146.398453,312.670288 146.398453,310.604279 
	C147.733948,310.502655 149.210251,309.943146 150.161331,310.423523 
	C151.563354,311.131622 152.591248,312.580444 153.778473,313.713776 
	C152.628296,314.714569 151.608429,315.987366 150.282974,316.622223 
	C149.372177,317.058502 148.037186,316.609161 146.645111,316.246399 
z"/>
<path fill="#201C0F" opacity="1.000000" stroke="none" 
	d="
M409.339966,313.923645 
	C407.206970,315.407623 405.134491,316.470154 402.293579,317.926666 
	C402.293579,314.545898 402.293579,312.647797 402.293579,310.331879 
	C405.286987,310.327057 408.387268,309.280365 409.339966,313.923645 
z"/>
</svg>